<?xml version="1.0" encoding="UTF-8" standalone="no"?>
<svg xmlns:xlink="http://www.w3.org/1999/xlink" height="40.05px" width="76.4px" xmlns="http://www.w3.org/2000/svg">
  <g transform="matrix(1.0, 0.0, 0.0, 1.0, 53.65, 32.95)">
    <use height="32.65" transform="matrix(1.0, 0.0, 0.0, 1.0, -44.65, -25.55)" width="45.75" xlink:href="#shape0"/>
    <use height="16.6" transform="matrix(1.0, 0.0, 0.0, 1.0, -53.65, -26.6)" width="16.3" xlink:href="#shape1"/>
  </g>
  <defs>
    <g id="shape0" transform="matrix(1.0, 0.0, 0.0, 1.0, 44.65, 25.55)">
      <path d="M-18.4 -16.8 Q-15.5 -16.65 -10.1 -20.0 -4.8 -23.3 -1.4 -23.0" fill="none" stroke="#000000" stroke-linecap="round" stroke-linejoin="round" stroke-width="5.0"/>
      <path d="M-19.9 -11.55 Q-21.85 -9.15 -25.3 -8.2 L-31.55 -8.4 Q-34.45 -9.55 -35.15 -12.05 -35.8 -14.6 -33.9 -17.0 -31.95 -19.45 -28.55 -20.35 L-22.25 -20.15 Q-19.35 -19.05 -18.7 -16.5 -18.0 -14.0 -19.9 -11.55" fill="#000000" fill-rule="evenodd" stroke="none"/>
      <path d="M-19.9 -11.55 Q-21.85 -9.15 -25.3 -8.2 L-31.55 -8.4 Q-34.45 -9.55 -35.15 -12.05 -35.8 -14.6 -33.9 -17.0 -31.95 -19.45 -28.55 -20.35 L-22.25 -20.15 Q-19.35 -19.05 -18.7 -16.5 -18.0 -14.0 -19.9 -11.55 Z" fill="none" stroke="#000000" stroke-linecap="round" stroke-linejoin="round" stroke-width="5.0"/>
      <path d="M-38.2 -11.4 Q-40.75 -12.3 -41.7 -13.95 -42.75 -15.55 -41.45 -17.05 -40.1 -18.6 -37.3 -19.05 L-31.85 -18.65 Q-29.25 -17.75 -28.3 -16.05 -27.4 -14.45 -28.8 -12.9 -30.05 -11.45 -32.7 -11.0 -35.55 -10.5 -38.2 -11.4" fill="#000000" fill-rule="evenodd" stroke="none"/>
      <path d="M-38.2 -11.4 Q-40.75 -12.3 -41.7 -13.95 -42.75 -15.55 -41.45 -17.05 -40.1 -18.6 -37.3 -19.05 L-31.85 -18.65 Q-29.25 -17.75 -28.3 -16.05 -27.4 -14.45 -28.8 -12.9 -30.05 -11.45 -32.7 -11.0 -35.55 -10.5 -38.2 -11.4 Z" fill="none" stroke="#000000" stroke-linecap="round" stroke-linejoin="round" stroke-width="5.0"/>
      <path d="M-23.0 -11.6 Q-25.3 -10.6 -26.65 -6.4 L-22.4 -6.4 -22.4 -2.4 -24.65 1.65 Q-25.9 4.3 -28.05 4.6" fill="none" stroke="#000000" stroke-linecap="round" stroke-linejoin="round" stroke-width="5.0"/>
      <path d="M-41.45 4.2 Q-41.25 4.0 -40.15 3.75 -39.15 3.5 -38.85 3.0 L-37.85 0.4 -35.95 -2.15 Q-34.85 -3.65 -34.85 -4.1 L-35.45 -4.8 -36.05 -5.6 Q-36.15 -7.05 -36.45 -7.6 L-37.25 -9.75 -37.85 -11.8 -37.85 -13.0 Q-34.95 -12.95 -34.65 -6.6 -34.15 -6.85 -33.85 -7.8" fill="none" stroke="#000000" stroke-linecap="round" stroke-linejoin="round" stroke-width="5.0"/>
    </g>
    <g id="shape1" transform="matrix(1.0, 0.0, 0.0, 1.0, 13.5, 40.55)">
      <path d="M1.05 -33.65 Q4.2 -30.55 1.65 -26.85 L0.5 -25.5 Q-0.2 -25.0 -1.5 -24.85 L-4.2 -24.15 -6.5 -24.25 Q-8.6 -23.9 -10.55 -24.95 -13.2 -26.65 -13.5 -29.85 L-12.05 -31.1 Q-11.95 -33.7 -10.2 -35.5 -9.15 -36.75 -7.75 -37.15 L-7.35 -40.55 Q-0.9 -35.6 1.05 -33.65" fill="#000000" fill-rule="evenodd" stroke="none"/>
    </g>
  </defs>
</svg>
