<?xml version="1.0" encoding="UTF-8" standalone="no"?>
<svg xmlns:xlink="http://www.w3.org/1999/xlink" height="68.95px" width="46.9px" xmlns="http://www.w3.org/2000/svg">
  <g transform="matrix(1.0, 0.0, 0.0, 1.0, 28.9, 59.25)">
    <use height="45.2" transform="matrix(1.0, 0.0, 0.0, 1.0, -14.25, -35.95)" width="30.0" xlink:href="#shape0"/>
    <use height="19.75" transform="matrix(1.0, 0.0, 0.0, 1.0, -18.95, -36.05)" width="18.45" xlink:href="#shape1"/>
  </g>
  <defs>
    <g id="shape0" transform="matrix(1.0, 0.0, 0.0, 1.0, 14.25, 35.95)">
      <path d="M10.15 -9.7 Q11.4 -10.35 12.3 -12.2 13.25 -14.0 13.25 -15.7 13.25 -19.2 10.65 -23.4 8.0 -27.65 8.0 -29.25 L8.1 -31.4 Q8.4 -32.55 9.65 -33.45" fill="none" stroke="#000000" stroke-linecap="round" stroke-linejoin="round" stroke-width="5.0"/>
      <path d="M11.15 -8.3 Q11.15 -5.0 8.9 -2.65 6.65 -0.3 3.45 -0.3 0.25 -0.3 -2.0 -2.65 -4.25 -5.0 -4.25 -8.3 -4.25 -11.6 -2.0 -13.95 0.25 -16.3 3.45 -16.3 6.65 -16.3 8.9 -13.95 11.15 -11.6 11.15 -8.3" fill="#000000" fill-rule="evenodd" stroke="none"/>
      <path d="M11.15 -8.3 Q11.15 -5.0 8.9 -2.65 6.65 -0.3 3.45 -0.3 0.25 -0.3 -2.0 -2.65 -4.25 -5.0 -4.25 -8.3 -4.25 -11.6 -2.0 -13.95 0.25 -16.3 3.45 -16.3 6.65 -16.3 8.9 -13.95 11.15 -11.6 11.15 -8.3 Z" fill="none" stroke="#000000" stroke-linecap="round" stroke-linejoin="round" stroke-width="5.0"/>
      <path d="M0.75 -18.9 Q0.75 -16.25 -1.05 -14.4 -2.9 -12.5 -5.5 -12.5 -8.05 -12.5 -9.9 -14.4 -11.75 -16.25 -11.75 -18.9 -11.75 -21.55 -9.9 -23.45 -8.05 -25.3 -5.5 -25.3 -2.9 -25.3 -1.05 -23.45 0.75 -21.55 0.75 -18.9" fill="#000000" fill-rule="evenodd" stroke="none"/>
      <path d="M0.75 -18.9 Q0.75 -16.25 -1.05 -14.4 -2.9 -12.5 -5.5 -12.5 -8.05 -12.5 -9.9 -14.4 -11.75 -16.25 -11.75 -18.9 -11.75 -21.55 -9.9 -23.45 -8.05 -25.3 -5.5 -25.3 -2.9 -25.3 -1.05 -23.45 0.75 -21.55 0.75 -18.9 Z" fill="none" stroke="#000000" stroke-linecap="round" stroke-linejoin="round" stroke-width="5.0"/>
      <path d="M-2.5 6.75 Q-0.2 6.05 -0.15 1.85 -0.05 -2.85 1.0 -3.75" fill="none" stroke="#000000" stroke-linecap="round" stroke-linejoin="round" stroke-width="5.0"/>
      <path d="M6.25 5.25 Q6.95 5.15 9.3 1.9 11.75 -1.4 11.75 -2.6 11.75 -3.15 10.7 -4.3 L9.25 -5.75" fill="none" stroke="#000000" stroke-linecap="round" stroke-linejoin="round" stroke-width="5.0"/>
      <path d="M-11.05 -16.9 L-8.05 -6.7 -7.2 -3.15 Q-7.05 -1.15 -8.35 -1.1 L-8.0 0.1 -7.75 0.05" fill="none" stroke="#000000" stroke-linecap="round" stroke-linejoin="round" stroke-width="5.0"/>
      <path d="M3.0 -12.25 Q4.05 -12.4 4.45 -10.6 4.9 -8.75 6.25 -8.75 6.15 -7.85 6.55 -6.15 L7.0 -4.0" fill="none" stroke="#000000" stroke-linecap="round" stroke-linejoin="round" stroke-width="5.0"/>
      <path d="M0.35 -23.0 L-1.25 -23.0 0.5 -21.45 Q1.35 -20.55 2.5 -20.25 3.2 -20.05 3.6 -19.0 L3.9 -18.0 4.25 -18.0 4.5 -18.0 Q3.85 -18.75 2.5 -21.4 1.7 -23.0 0.35 -23.0 M1.5 -19.5 Q2.6 -19.15 3.0 -17.75 3.2 -17.95 3.9 -18.0 L4.25 -17.0" fill="none" stroke="#000000" stroke-linecap="round" stroke-linejoin="round" stroke-width="5.0"/>
    </g>
    <g id="shape1" transform="matrix(1.0, 0.0, 0.0, 1.0, 11.15, 40.2)">
      <path d="M7.25 -27.25 Q6.95 -24.0 4.1 -22.8 1.4 -20.15 -3.0 -20.5 -5.55 -21.35 -7.95 -22.65 -10.9 -24.3 -11.15 -27.85 -11.35 -31.25 -9.15 -33.9 -6.95 -36.6 -3.55 -37.05 -0.15 -37.45 2.65 -35.55 5.45 -33.6 6.7 -30.45 7.4 -28.95 7.25 -27.25" fill="#000000" fill-rule="evenodd" stroke="none"/>
      <path d="M2.35 -40.15 Q4.05 -40.6 5.85 -33.7 6.4 -31.55 6.35 -30.85 L5.1 -30.5 Q2.45 -31.6 0.95 -32.6 -1.1 -33.95 -1.9 -35.55 L-1.8 -35.6 -1.7 -35.8 -0.95 -35.6 -0.6 -35.45 0.45 -37.8 Q1.55 -39.95 2.35 -40.15 M-10.7 -35.5 L-10.25 -39.95 Q-8.95 -39.25 -7.85 -38.35 -6.05 -36.95 -5.7 -35.8 -5.35 -34.35 -6.85 -32.8 -8.1 -31.4 -9.8 -30.8 -10.75 -32.55 -10.7 -35.5" fill="#000000" fill-rule="evenodd" stroke="none"/>
    </g>
  </defs>
</svg>
