<?xml version="1.0" encoding="UTF-8" standalone="no"?>
<svg xmlns:xlink="http://www.w3.org/1999/xlink" height="40.05px" width="76.4px" xmlns="http://www.w3.org/2000/svg">
  <g transform="matrix(1.0, 0.0, 0.0, 1.0, 53.65, 32.95)">
    <use height="38.65" transform="matrix(1.0, 0.0, 0.0, 1.0, -11.0, -32.15)" width="33.75" xlink:href="#shape0"/>
    <use height="16.6" transform="matrix(1.0, 0.0, 0.0, 1.0, -20.9, -23.95)" width="16.3" xlink:href="#shape1"/>
  </g>
  <defs>
    <g id="shape0" transform="matrix(1.0, 0.0, 0.0, 1.0, 11.0, 32.15)">
      <path d="M15.65 -12.65 Q18.0 -12.65 18.75 -13.7 19.25 -14.45 19.25 -16.55 19.25 -18.8 18.15 -20.3 17.05 -21.85 17.05 -22.95 17.05 -24.2 18.65 -27.0 L20.25 -29.65" fill="none" stroke="#000000" stroke-linecap="round" stroke-linejoin="round" stroke-width="5.0"/>
      <path d="M16.0 -11.0 Q16.0 -8.25 13.5 -6.3 11.0 -4.3 7.45 -4.3 3.9 -4.3 1.45 -6.3 -1.05 -8.25 -1.05 -11.0 -1.05 -13.8 1.45 -15.75 3.9 -17.7 7.45 -17.7 11.0 -17.7 13.5 -15.75 16.0 -13.8 16.0 -11.0" fill="#000000" fill-rule="evenodd" stroke="none"/>
      <path d="M16.0 -11.0 Q16.0 -8.25 13.5 -6.3 11.0 -4.3 7.45 -4.3 3.9 -4.3 1.45 -6.3 -1.05 -8.25 -1.05 -11.0 -1.05 -13.8 1.45 -15.75 3.9 -17.7 7.45 -17.7 11.0 -17.7 13.5 -15.75 16.0 -13.8 16.0 -11.0 Z" fill="none" stroke="#000000" stroke-linecap="round" stroke-linejoin="round" stroke-width="5.0"/>
      <path d="M-3.5 -8.3 Q-5.65 -9.25 -7.1 -11.2 -8.55 -13.15 -8.5 -15.0 -8.6 -16.8 -7.1 -17.4 -5.55 -18.0 -3.45 -17.05 -1.4 -16.1 0.1 -14.15 1.55 -12.2 1.55 -10.35 1.5 -8.6 -0.05 -8.0 -1.5 -7.4 -3.5 -8.3" fill="#000000" fill-rule="evenodd" stroke="none"/>
      <path d="M-3.5 -8.3 Q-5.65 -9.25 -7.1 -11.2 -8.55 -13.15 -8.5 -15.0 -8.6 -16.8 -7.1 -17.4 -5.55 -18.0 -3.45 -17.05 -1.4 -16.1 0.1 -14.15 1.55 -12.2 1.55 -10.35 1.5 -8.6 -0.05 -8.0 -1.5 -7.4 -3.5 -8.3 Z" fill="none" stroke="#000000" stroke-linecap="round" stroke-linejoin="round" stroke-width="5.0"/>
      <path d="M0.0 -17.35 L1.1 -17.35 Q1.65 -16.4 2.8 -16.05 4.0 -15.7 4.65 -14.8 5.45 -13.75 5.75 -12.55 L6.05 -10.05" fill="none" stroke="#000000" stroke-linecap="round" stroke-linejoin="round" stroke-width="5.0"/>
      <path d="M3.8 4.0 L8.0 4.0 Q8.8 1.7 10.45 -0.1 12.3 -2.1 14.45 -2.65 L10.65 -7.25" fill="none" stroke="#000000" stroke-linecap="round" stroke-linejoin="round" stroke-width="5.0"/>
      <path d="M-7.8 3.6 Q-6.05 3.6 -2.9 0.15 0.0 -3.0 0.0 -3.85 0.0 -4.8 -3.55 -8.85 L-7.4 -13.05" fill="none" stroke="#000000" stroke-linecap="round" stroke-linejoin="round" stroke-width="5.0"/>
    </g>
    <g id="shape1" transform="matrix(1.0, 0.0, 0.0, 1.0, 13.5, 40.55)">
      <path d="M1.05 -33.65 Q4.2 -30.55 1.65 -26.85 L0.5 -25.5 Q-0.2 -25.0 -1.5 -24.85 L-4.2 -24.15 -6.5 -24.25 Q-8.6 -23.9 -10.55 -24.95 -13.2 -26.65 -13.5 -29.85 L-12.05 -31.1 Q-11.95 -33.7 -10.2 -35.5 -9.15 -36.75 -7.75 -37.15 L-7.35 -40.55 Q-0.9 -35.6 1.05 -33.65" fill="#000000" fill-rule="evenodd" stroke="none"/>
    </g>
  </defs>
</svg>
