<?xml version="1.0" encoding="UTF-8" standalone="no"?>
<svg xmlns:xlink="http://www.w3.org/1999/xlink" height="40.05px" width="76.4px" xmlns="http://www.w3.org/2000/svg">
  <g transform="matrix(1.0, 0.0, 0.0, 1.0, 53.65, 32.95)">
    <use height="39.3" transform="matrix(1.0, 0.0, 0.0, 1.0, -37.75, -32.6)" width="54.1" xlink:href="#shape0"/>
    <use height="16.6" transform="matrix(1.0, 0.0, 0.0, 1.0, -39.75, -32.05)" width="16.3" xlink:href="#shape1"/>
  </g>
  <defs>
    <g id="shape0" transform="matrix(1.0, 0.0, 0.0, 1.0, 37.75, 32.6)">
      <path d="M2.4 -17.65 Q5.2 -17.3 5.35 -20.7 L5.65 -25.85 Q8.6 -31.15 13.85 -29.85" fill="none" stroke="#000000" stroke-linecap="round" stroke-linejoin="round" stroke-width="5.0"/>
      <path d="M0.15 -15.95 Q0.15 -13.2 -2.35 -11.25 -4.85 -9.25 -8.4 -9.25 -11.95 -9.25 -14.4 -11.25 -16.9 -13.2 -16.9 -15.95 -16.9 -18.75 -14.4 -20.7 -11.95 -22.65 -8.4 -22.65 -4.85 -22.65 -2.35 -20.7 0.15 -18.75 0.15 -15.95" fill="#000000" fill-rule="evenodd" stroke="none"/>
      <path d="M0.15 -15.95 Q0.15 -13.2 -2.35 -11.25 -4.85 -9.25 -8.4 -9.25 -11.95 -9.25 -14.4 -11.25 -16.9 -13.2 -16.9 -15.95 -16.9 -18.75 -14.4 -20.7 -11.95 -22.65 -8.4 -22.65 -4.85 -22.65 -2.35 -20.7 0.15 -18.75 0.15 -15.95 Z" fill="none" stroke="#000000" stroke-linecap="round" stroke-linejoin="round" stroke-width="5.0"/>
      <path d="M-16.85 -14.45 L-22.35 -14.85 Q-24.9 -15.75 -25.85 -17.4 -26.9 -19.0 -25.6 -20.5 -24.25 -22.05 -21.45 -22.5 L-16.0 -22.1 Q-13.4 -21.2 -12.45 -19.5 -11.55 -17.9 -12.95 -16.35 -14.2 -14.9 -16.85 -14.45" fill="#000000" fill-rule="evenodd" stroke="none"/>
      <path d="M-16.85 -14.45 L-22.35 -14.85 Q-24.9 -15.75 -25.85 -17.4 -26.9 -19.0 -25.6 -20.5 -24.25 -22.05 -21.45 -22.5 L-16.0 -22.1 Q-13.4 -21.2 -12.45 -19.5 -11.55 -17.9 -12.95 -16.35 -14.2 -14.9 -16.85 -14.45 Z" fill="none" stroke="#000000" stroke-linecap="round" stroke-linejoin="round" stroke-width="5.0"/>
      <path d="M1.0 -14.4 Q0.7 -12.05 -0.6 -9.15 L-3.05 -4.4 -2.05 -4.4 3.6 -6.0 5.4 -6.0 5.4 -1.0 Q4.8 0.7 4.6 4.2 L2.8 4.2" fill="none" stroke="#000000" stroke-linecap="round" stroke-linejoin="round" stroke-width="5.0"/>
      <path d="M-6.05 -11.6 Q-5.65 -8.8 -5.65 -6.6 -4.95 -6.85 -4.6 -6.35 -4.35 -5.9 -4.4 -5.2 L-3.85 -5.0 -4.45 -5.0 -4.4 -5.2 -5.6 -6.05 Q-6.45 -6.9 -6.45 -7.7 L-6.25 -8.4" fill="none" stroke="#000000" stroke-linecap="round" stroke-linejoin="round" stroke-width="5.0"/>
      <path d="M-22.8 -16.45 L-22.15 -15.2 Q-21.95 -14.5 -21.6 -14.45 L-20.05 -14.0 Q-19.6 -13.75 -19.6 -13.15 -19.6 -11.9 -23.0 -11.9 L-26.85 -12.05 Q-28.8 -11.45 -29.55 -10.6 -30.5 -9.55 -30.25 -7.45" fill="none" stroke="#000000" stroke-linecap="round" stroke-linejoin="round" stroke-width="5.0"/>
      <path d="M-35.25 -5.45 Q-34.65 -8.8 -31.5 -11.8 -28.4 -14.75 -24.85 -15.45" fill="none" stroke="#000000" stroke-linecap="round" stroke-linejoin="round" stroke-width="5.0"/>
    </g>
    <g id="shape1" transform="matrix(1.0, 0.0, 0.0, 1.0, 13.5, 40.55)">
      <path d="M1.05 -33.65 Q4.2 -30.55 1.65 -26.85 L0.5 -25.5 Q-0.2 -25.0 -1.5 -24.85 L-4.2 -24.15 -6.5 -24.25 Q-8.6 -23.9 -10.55 -24.95 -13.2 -26.65 -13.5 -29.85 L-12.05 -31.1 Q-11.95 -33.7 -10.2 -35.5 -9.15 -36.75 -7.75 -37.15 L-7.35 -40.55 Q-0.9 -35.6 1.05 -33.65" fill="#000000" fill-rule="evenodd" stroke="none"/>
    </g>
  </defs>
</svg>
