<?xml version="1.0" encoding="UTF-8" standalone="no"?>
<svg xmlns:xlink="http://www.w3.org/1999/xlink" height="68.95px" width="46.9px" xmlns="http://www.w3.org/2000/svg">
  <g transform="matrix(1.0, 0.0, 0.0, 1.0, 28.9, 59.25)">
    <use height="33.35" transform="matrix(1.0, 0.0, 0.0, 1.0, -11.6, -23.65)" width="27.35" xlink:href="#shape0"/>
    <use height="19.75" transform="matrix(1.0, 0.0, 0.0, 1.0, -13.95, -35.9)" width="18.45" xlink:href="#shape1"/>
  </g>
  <defs>
    <g id="shape0" transform="matrix(1.0, 0.0, 0.0, 1.0, 11.6, 23.65)">
      <path d="M10.15 2.6 Q11.4 1.95 12.3 0.1 13.25 -1.7 13.25 -3.4 13.25 -6.9 10.65 -11.1 8.0 -15.35 8.0 -16.95 L8.1 -19.1 Q8.4 -20.25 9.65 -21.15" fill="none" stroke="#000000" stroke-linecap="round" stroke-linejoin="round" stroke-width="5.0"/>
      <path d="M9.6 -0.8 Q9.6 2.5 7.35 4.85 5.1 7.2 1.9 7.2 -1.3 7.2 -3.55 4.85 -5.8 2.5 -5.8 -0.8 -5.8 -4.1 -3.55 -6.45 -1.3 -8.8 1.9 -8.8 5.1 -8.8 7.35 -6.45 9.6 -4.1 9.6 -0.8" fill="#000000" fill-rule="evenodd" stroke="none"/>
      <path d="M9.6 -0.8 Q9.6 2.5 7.35 4.85 5.1 7.2 1.9 7.2 -1.3 7.2 -3.55 4.85 -5.8 2.5 -5.8 -0.8 -5.8 -4.1 -3.55 -6.45 -1.3 -8.8 1.9 -8.8 5.1 -8.8 7.35 -6.45 9.6 -4.1 9.6 -0.8 Z" fill="none" stroke="#000000" stroke-linecap="round" stroke-linejoin="round" stroke-width="5.0"/>
      <path d="M3.4 -13.3 Q3.4 -10.65 1.6 -8.8 -0.25 -6.9 -2.85 -6.9 -5.4 -6.9 -7.25 -8.8 -9.1 -10.65 -9.1 -13.3 -9.1 -15.95 -7.25 -17.85 -5.4 -19.7 -2.85 -19.7 -0.25 -19.7 1.6 -17.85 3.4 -15.95 3.4 -13.3" fill="#000000" fill-rule="evenodd" stroke="none"/>
      <path d="M3.4 -13.3 Q3.4 -10.65 1.6 -8.8 -0.25 -6.9 -2.85 -6.9 -5.4 -6.9 -7.25 -8.8 -9.1 -10.65 -9.1 -13.3 -9.1 -15.95 -7.25 -17.85 -5.4 -19.7 -2.85 -19.7 -0.25 -19.7 1.6 -17.85 3.4 -15.95 3.4 -13.3 Z" fill="none" stroke="#000000" stroke-linecap="round" stroke-linejoin="round" stroke-width="5.0"/>
      <path d="M-7.25 2.75 Q-7.0 4.45 -5.75 4.4 -4.3 4.3 -4.0 5.0 -3.45 6.1 -2.7 6.5 L-0.5 6.75" fill="none" stroke="#000000" stroke-linecap="round" stroke-linejoin="round" stroke-width="5.0"/>
      <path d="M-7.25 -15.0 L-7.0 -4.35 -7.1 -0.75 Q-7.45 1.25 -8.75 1.0 L-8.75 2.25 -8.5 2.25" fill="none" stroke="#000000" stroke-linecap="round" stroke-linejoin="round" stroke-width="5.0"/>
      <path d="M3.0 -12.25 Q4.05 -12.4 4.45 -10.6 4.9 -8.75 6.25 -8.75 6.15 -7.85 6.55 -6.15 L7.0 -4.0" fill="none" stroke="#000000" stroke-linecap="round" stroke-linejoin="round" stroke-width="5.0"/>
    </g>
    <g id="shape1" transform="matrix(1.0, 0.0, 0.0, 1.0, 11.15, 40.2)">
      <path d="M7.25 -27.25 Q6.95 -24.0 4.1 -22.8 1.4 -20.15 -3.0 -20.5 -5.55 -21.35 -7.95 -22.65 -10.9 -24.3 -11.15 -27.85 -11.35 -31.25 -9.15 -33.9 -6.95 -36.6 -3.55 -37.05 -0.15 -37.45 2.65 -35.55 5.45 -33.6 6.7 -30.45 7.4 -28.95 7.25 -27.25" fill="#000000" fill-rule="evenodd" stroke="none"/>
      <path d="M2.35 -40.15 Q4.05 -40.6 5.85 -33.7 6.4 -31.55 6.35 -30.85 L5.1 -30.5 Q2.45 -31.6 0.95 -32.6 -1.1 -33.95 -1.9 -35.55 L-1.8 -35.6 -1.7 -35.8 -0.95 -35.6 -0.6 -35.45 0.45 -37.8 Q1.55 -39.95 2.35 -40.15 M-10.7 -35.5 L-10.25 -39.95 Q-8.95 -39.25 -7.85 -38.35 -6.05 -36.95 -5.7 -35.8 -5.35 -34.35 -6.85 -32.8 -8.1 -31.4 -9.8 -30.8 -10.75 -32.55 -10.7 -35.5" fill="#000000" fill-rule="evenodd" stroke="none"/>
    </g>
  </defs>
</svg>
