<?xml version="1.0" encoding="UTF-8" standalone="no"?>
<svg xmlns:xlink="http://www.w3.org/1999/xlink" height="68.95px" width="46.9px" xmlns="http://www.w3.org/2000/svg">
  <g transform="matrix(1.0, 0.0, 0.0, 1.0, 28.9, 59.25)">
    <use height="48.8" transform="matrix(1.0, 0.0, 0.0, 1.0, -22.5, -40.8)" width="40.5" xlink:href="#shape0"/>
    <use height="19.75" transform="matrix(1.0, 0.0, 0.0, 1.0, -23.7, -53.1)" width="18.45" xlink:href="#shape1"/>
  </g>
  <defs>
    <g id="shape0" transform="matrix(1.0, 0.0, 0.0, 1.0, 22.5, 40.8)">
      <path d="M4.25 -20.5 L12.3 -21.85 Q15.5 -23.2 15.5 -28.15 15.5 -29.45 15.0 -31.2 L14.5 -33.4 Q14.5 -34.25 15.0 -35.25" fill="none" stroke="#000000" stroke-linecap="round" stroke-linejoin="round" stroke-width="5.0"/>
      <path d="M6.25 -21.3 Q6.25 -18.0 4.0 -15.65 1.75 -13.3 -1.45 -13.3 -4.65 -13.3 -6.9 -15.65 -9.15 -18.0 -9.15 -21.3 -9.15 -24.6 -6.9 -26.95 -4.65 -29.3 -1.45 -29.3 1.75 -29.3 4.0 -26.95 6.25 -24.6 6.25 -21.3" fill="#000000" fill-rule="evenodd" stroke="none"/>
      <path d="M6.25 -21.3 Q6.25 -18.0 4.0 -15.65 1.75 -13.3 -1.45 -13.3 -4.65 -13.3 -6.9 -15.65 -9.15 -18.0 -9.15 -21.3 -9.15 -24.6 -6.9 -26.95 -4.65 -29.3 -1.45 -29.3 1.75 -29.3 4.0 -26.95 6.25 -24.6 6.25 -21.3 Z" fill="none" stroke="#000000" stroke-linecap="round" stroke-linejoin="round" stroke-width="5.0"/>
      <path d="M-1.25 -31.9 Q-1.25 -29.25 -3.05 -27.4 -4.9 -25.5 -7.5 -25.5 -10.05 -25.5 -11.9 -27.4 -13.75 -29.25 -13.75 -31.9 -13.75 -34.55 -11.9 -36.45 -10.05 -38.3 -7.5 -38.3 -4.9 -38.3 -3.05 -36.45 -1.25 -34.55 -1.25 -31.9" fill="#000000" fill-rule="evenodd" stroke="none"/>
      <path d="M-1.25 -31.9 Q-1.25 -29.25 -3.05 -27.4 -4.9 -25.5 -7.5 -25.5 -10.05 -25.5 -11.9 -27.4 -13.75 -29.25 -13.75 -31.9 -13.75 -34.55 -11.9 -36.45 -10.05 -38.3 -7.5 -38.3 -4.9 -38.3 -3.05 -36.45 -1.25 -34.55 -1.25 -31.9 Z" fill="none" stroke="#000000" stroke-linecap="round" stroke-linejoin="round" stroke-width="5.0"/>
      <path d="M-3.2 5.5 Q-2.45 4.65 -2.5 0.4 -2.6 -3.7 -1.2 -4.75 -3.25 -7.55 -2.95 -16.0 L-4.7 -16.0 Q-4.7 -15.8 -5.25 -15.4 -5.85 -15.0 -6.2 -15.0 L-6.2 -12.75 -5.1 -9.65 Q-4.9 -8.7 -4.25 -7.9 -3.6 -7.1 -3.45 -6.0 L-2.95 -6.0" fill="none" stroke="#000000" stroke-linecap="round" stroke-linejoin="round" stroke-width="5.0"/>
      <path d="M4.0 3.25 L4.75 3.25 Q4.75 -1.0 5.5 -2.5 L6.75 -5.25 7.5 -7.15 Q7.5 -7.75 5.0 -9.7 2.5 -11.7 2.5 -13.0 L2.65 -14.0 2.75 -15.25 5.25 -15.5 5.25 -11.5" fill="none" stroke="#000000" stroke-linecap="round" stroke-linejoin="round" stroke-width="5.0"/>
      <path d="M-20.0 -30.75 L-19.6 -28.35 Q-19.05 -27.0 -17.5 -27.25 L-17.5 -24.75 -15.0 -24.75 -14.5 -25.75 -14.75 -25.5 -14.75 -26.0 Q-14.75 -26.8 -15.5 -30.65 -15.5 -31.2 -15.0 -31.4 L-14.0 -31.75 -15.0 -32.0 -14.85 -32.7 Q-14.65 -33.1 -14.25 -33.25" fill="none" stroke="#000000" stroke-linecap="round" stroke-linejoin="round" stroke-width="5.0"/>
    </g>
    <g id="shape1" transform="matrix(1.0, 0.0, 0.0, 1.0, 11.15, 40.2)">
      <path d="M7.25 -27.25 Q6.95 -24.0 4.1 -22.8 1.4 -20.15 -3.0 -20.5 -5.55 -21.35 -7.95 -22.65 -10.9 -24.3 -11.15 -27.85 -11.35 -31.25 -9.15 -33.9 -6.95 -36.6 -3.55 -37.05 -0.15 -37.45 2.65 -35.55 5.45 -33.6 6.7 -30.45 7.4 -28.95 7.25 -27.25" fill="#000000" fill-rule="evenodd" stroke="none"/>
      <path d="M2.35 -40.15 Q4.05 -40.6 5.85 -33.7 6.4 -31.55 6.35 -30.85 L5.1 -30.5 Q2.45 -31.6 0.95 -32.6 -1.1 -33.95 -1.9 -35.55 L-1.8 -35.6 -1.7 -35.8 -0.95 -35.6 -0.6 -35.45 0.45 -37.8 Q1.55 -39.95 2.35 -40.15 M-10.7 -35.5 L-10.25 -39.95 Q-8.95 -39.25 -7.85 -38.35 -6.05 -36.95 -5.7 -35.8 -5.35 -34.35 -6.85 -32.8 -8.1 -31.4 -9.8 -30.8 -10.75 -32.55 -10.7 -35.5" fill="#000000" fill-rule="evenodd" stroke="none"/>
    </g>
  </defs>
</svg>
