<?xml version="1.0" encoding="UTF-8" standalone="no"?>
<svg xmlns:xlink="http://www.w3.org/1999/xlink" height="68.95px" width="46.9px" xmlns="http://www.w3.org/2000/svg">
  <g transform="matrix(1.0, 0.0, 0.0, 1.0, 28.9, 59.25)">
    <use height="40.8" transform="matrix(1.0, 0.0, 0.0, 1.0, -22.75, -49.3)" width="40.75" xlink:href="#shape0"/>
    <use height="19.75" transform="matrix(1.0, 0.0, 0.0, 1.0, -28.4, -57.0)" width="18.45" xlink:href="#shape1"/>
  </g>
  <defs>
    <g id="shape0" transform="matrix(1.0, 0.0, 0.0, 1.0, 22.75, 49.3)">
      <path d="M2.5 -34.25 L4.15 -35.0 Q5.35 -35.75 5.25 -36.75 L7.75 -36.75 Q7.4 -34.5 9.25 -34.5 L9.5 -33.0 14.0 -33.0 14.85 -34.0 15.5 -34.75" fill="none" stroke="#000000" stroke-linecap="round" stroke-linejoin="round" stroke-width="5.0"/>
      <path d="M3.7 -32.55 Q3.7 -29.25 1.45 -26.9 -0.8 -24.55 -4.0 -24.55 -7.2 -24.55 -9.45 -26.9 -11.7 -29.25 -11.7 -32.55 -11.7 -35.85 -9.45 -38.2 -7.2 -40.55 -4.0 -40.55 -0.8 -40.55 1.45 -38.2 3.7 -35.85 3.7 -32.55" fill="#000000" fill-rule="evenodd" stroke="none"/>
      <path d="M3.7 -32.55 Q3.7 -29.25 1.45 -26.9 -0.8 -24.55 -4.0 -24.55 -7.2 -24.55 -9.45 -26.9 -11.7 -29.25 -11.7 -32.55 -11.7 -35.85 -9.45 -38.2 -7.2 -40.55 -4.0 -40.55 -0.8 -40.55 1.45 -38.2 3.7 -35.85 3.7 -32.55 Z" fill="none" stroke="#000000" stroke-linecap="round" stroke-linejoin="round" stroke-width="5.0"/>
      <path d="M-5.5 -40.4 Q-5.5 -37.75 -7.3 -35.9 -9.15 -34.0 -11.75 -34.0 -14.3 -34.0 -16.15 -35.9 -18.0 -37.75 -18.0 -40.4 -18.0 -43.05 -16.15 -44.95 -14.3 -46.8 -11.75 -46.8 -9.15 -46.8 -7.3 -44.95 -5.5 -43.05 -5.5 -40.4" fill="#000000" fill-rule="evenodd" stroke="none"/>
      <path d="M-5.5 -40.4 Q-5.5 -37.75 -7.3 -35.9 -9.15 -34.0 -11.75 -34.0 -14.3 -34.0 -16.15 -35.9 -18.0 -37.75 -18.0 -40.4 -18.0 -43.05 -16.15 -44.95 -14.3 -46.8 -11.75 -46.8 -9.15 -46.8 -7.3 -44.95 -5.5 -43.05 -5.5 -40.4 Z" fill="none" stroke="#000000" stroke-linecap="round" stroke-linejoin="round" stroke-width="5.0"/>
      <path d="M-9.5 -26.5 Q-9.5 -24.25 -7.75 -19.0 L-5.25 -19.0 Q-4.75 -20.0 -4.75 -21.0 L-4.5 -21.0 Q-4.65 -19.7 -3.85 -15.85 -3.1 -12.1 -3.25 -11.0" fill="none" stroke="#000000" stroke-linecap="round" stroke-linejoin="round" stroke-width="5.0"/>
      <path d="M4.5 -13.25 Q4.5 -14.25 5.0 -14.75 L5.0 -23.75 2.75 -23.5 2.5 -29.75" fill="none" stroke="#000000" stroke-linecap="round" stroke-linejoin="round" stroke-width="5.0"/>
      <path d="M-19.5 -39.0 L-19.25 -30.75 -19.25 -30.25 -18.85 -30.75 Q-17.5 -32.45 -17.5 -36.0 -17.0 -35.5 -15.75 -35.5 L-15.75 -29.0 -15.25 -29.0 Q-14.85 -30.1 -13.4 -31.75 -11.95 -33.35 -11.5 -34.75 M-19.25 -30.25 L-19.25 -27.75 -20.0 -27.75 -20.1 -27.9 -20.25 -28.4 Q-20.25 -29.0 -19.25 -30.25" fill="none" stroke="#000000" stroke-linecap="round" stroke-linejoin="round" stroke-width="5.0"/>
    </g>
    <g id="shape1" transform="matrix(1.0, 0.0, 0.0, 1.0, 11.15, 40.2)">
      <path d="M7.25 -27.25 Q6.95 -24.0 4.1 -22.8 1.4 -20.15 -3.0 -20.5 -5.55 -21.35 -7.95 -22.65 -10.9 -24.3 -11.15 -27.85 -11.35 -31.25 -9.15 -33.9 -6.95 -36.6 -3.55 -37.05 -0.15 -37.45 2.65 -35.55 5.45 -33.6 6.7 -30.45 7.4 -28.95 7.25 -27.25" fill="#000000" fill-rule="evenodd" stroke="none"/>
      <path d="M2.35 -40.15 Q4.05 -40.6 5.85 -33.7 6.4 -31.55 6.35 -30.85 L5.1 -30.5 Q2.45 -31.6 0.95 -32.6 -1.1 -33.95 -1.9 -35.55 L-1.8 -35.6 -1.7 -35.8 -0.95 -35.6 -0.6 -35.45 0.45 -37.8 Q1.55 -39.95 2.35 -40.15 M-10.7 -35.5 L-10.25 -39.95 Q-8.95 -39.25 -7.85 -38.35 -6.05 -36.95 -5.7 -35.8 -5.35 -34.35 -6.85 -32.8 -8.1 -31.4 -9.8 -30.8 -10.75 -32.55 -10.7 -35.5" fill="#000000" fill-rule="evenodd" stroke="none"/>
    </g>
  </defs>
</svg>
