<?xml version="1.0" encoding="UTF-8" standalone="no"?>
<svg xmlns:xlink="http://www.w3.org/1999/xlink" height="68.95px" width="46.9px" xmlns="http://www.w3.org/2000/svg">
  <g transform="matrix(1.0, 0.0, 0.0, 1.0, 28.9, 59.25)">
    <use height="32.85" transform="matrix(1.0, 0.0, 0.0, 1.0, -25.25, -54.6)" width="42.0" xlink:href="#shape0"/>
    <use height="19.75" transform="matrix(1.0, 0.0, 0.0, 1.0, -28.9, -59.25)" width="18.45" xlink:href="#shape1"/>
  </g>
  <defs>
    <g id="shape0" transform="matrix(1.0, 0.0, 0.0, 1.0, 25.25, 54.6)">
      <path d="M-1.5 -40.75 Q1.3 -41.15 7.65 -40.75 12.9 -40.8 14.25 -43.25" fill="none" stroke="#000000" stroke-linecap="round" stroke-linejoin="round" stroke-width="5.0"/>
      <path d="M-0.6 -39.55 Q-0.6 -36.25 -2.85 -33.9 -5.1 -31.55 -8.3 -31.55 -11.5 -31.55 -13.75 -33.9 -16.0 -36.25 -16.0 -39.55 -16.0 -42.85 -13.75 -45.2 -11.5 -47.55 -8.3 -47.55 -5.1 -47.55 -2.85 -45.2 -0.6 -42.85 -0.6 -39.55" fill="#000000" fill-rule="evenodd" stroke="none"/>
      <path d="M-0.6 -39.55 Q-0.6 -36.25 -2.85 -33.9 -5.1 -31.55 -8.3 -31.55 -11.5 -31.55 -13.75 -33.9 -16.0 -36.25 -16.0 -39.55 -16.0 -42.85 -13.75 -45.2 -11.5 -47.55 -8.3 -47.55 -5.1 -47.55 -2.85 -45.2 -0.6 -42.85 -0.6 -39.55 Z" fill="none" stroke="#000000" stroke-linecap="round" stroke-linejoin="round" stroke-width="5.0"/>
      <path d="M-9.0 -45.7 Q-9.0 -43.05 -10.8 -41.2 -12.65 -39.3 -15.25 -39.3 -17.8 -39.3 -19.65 -41.2 -21.5 -43.05 -21.5 -45.7 -21.5 -48.35 -19.65 -50.25 -17.8 -52.1 -15.25 -52.1 -12.65 -52.1 -10.8 -50.25 -9.0 -48.35 -9.0 -45.7" fill="#000000" fill-rule="evenodd" stroke="none"/>
      <path d="M-9.0 -45.7 Q-9.0 -43.05 -10.8 -41.2 -12.65 -39.3 -15.25 -39.3 -17.8 -39.3 -19.65 -41.2 -21.5 -43.05 -21.5 -45.7 -21.5 -48.35 -19.65 -50.25 -17.8 -52.1 -15.25 -52.1 -12.65 -52.1 -10.8 -50.25 -9.0 -48.35 -9.0 -45.7 Z" fill="none" stroke="#000000" stroke-linecap="round" stroke-linejoin="round" stroke-width="5.0"/>
      <path d="M-10.25 -37.25 Q-10.95 -37.0 -11.85 -35.55 L-13.0 -33.75 -13.0 -31.75 -6.75 -31.5 -6.75 -30.25 -10.2 -27.95 Q-12.3 -26.4 -12.25 -24.25" fill="none" stroke="#000000" stroke-linecap="round" stroke-linejoin="round" stroke-width="5.0"/>
      <path d="M-1.25 -32.0 Q-1.8 -30.8 -3.65 -28.7 -5.35 -26.8 -5.75 -25.75 L-7.75 -25.75" fill="none" stroke="#000000" stroke-linecap="round" stroke-linejoin="round" stroke-width="5.0"/>
      <path d="M-21.25 -40.75 L-21.0 -40.75 -20.75 -35.0 Q-20.3 -33.15 -20.35 -31.35 -20.4 -27.85 -22.75 -27.5" fill="none" stroke="#000000" stroke-linecap="round" stroke-linejoin="round" stroke-width="5.0"/>
      <path d="M-16.5 -37.0 L-16.45 -32.45 Q-16.45 -29.75 -17.0 -28.5 -16.75 -28.5 -16.25 -29.0" fill="none" stroke="#000000" stroke-linecap="round" stroke-linejoin="round" stroke-width="5.0"/>
    </g>
    <g id="shape1" transform="matrix(1.0, 0.0, 0.0, 1.0, 11.15, 40.2)">
      <path d="M7.25 -27.25 Q6.95 -24.0 4.1 -22.8 1.4 -20.15 -3.0 -20.5 -5.55 -21.35 -7.95 -22.65 -10.9 -24.3 -11.15 -27.85 -11.35 -31.25 -9.15 -33.9 -6.95 -36.6 -3.55 -37.05 -0.15 -37.45 2.65 -35.55 5.45 -33.6 6.7 -30.45 7.4 -28.95 7.25 -27.25" fill="#000000" fill-rule="evenodd" stroke="none"/>
      <path d="M2.35 -40.15 Q4.05 -40.6 5.85 -33.7 6.4 -31.55 6.35 -30.85 L5.1 -30.5 Q2.45 -31.6 0.95 -32.6 -1.1 -33.95 -1.9 -35.55 L-1.8 -35.6 -1.7 -35.8 -0.95 -35.6 -0.6 -35.45 0.45 -37.8 Q1.55 -39.95 2.35 -40.15 M-10.7 -35.5 L-10.25 -39.95 Q-8.95 -39.25 -7.85 -38.35 -6.05 -36.95 -5.7 -35.8 -5.35 -34.35 -6.85 -32.8 -8.1 -31.4 -9.8 -30.8 -10.75 -32.55 -10.7 -35.5" fill="#000000" fill-rule="evenodd" stroke="none"/>
    </g>
  </defs>
</svg>
