<?xml version="1.0" encoding="UTF-8" standalone="no"?>
<svg xmlns:xlink="http://www.w3.org/1999/xlink" height="70.15px" width="49.75px" xmlns="http://www.w3.org/2000/svg">
  <g transform="matrix(1.0, 0.0, 0.0, 1.0, 32.75, 36.25)">
    <use height="44.75" transform="matrix(1.0, 0.0, 0.0, 1.0, -13.15, -36.25)" width="30.15" xlink:href="#shape0"/>
    <use height="19.75" transform="matrix(1.0, 0.0, 0.0, 1.0, -23.55, -24.35)" width="18.45" xlink:href="#shape1"/>
  </g>
  <defs>
    <g id="shape0" transform="matrix(1.0, 0.0, 0.0, 1.0, 13.15, 36.25)">
      <path d="M11.4 -11.2 Q12.65 -11.8 13.55 -13.6 14.5 -15.3 14.5 -16.9 14.5 -20.2 11.9 -24.2 9.25 -28.25 9.25 -29.75 L9.35 -31.8 Q9.65 -32.9 10.9 -33.75" fill="none" stroke="#000000" stroke-linecap="round" stroke-linejoin="round" stroke-width="5.0"/>
      <path d="M8.7 -6.95 Q6.45 -4.6 3.25 -4.6 0.05 -4.6 -2.2 -6.95 -4.45 -9.3 -4.45 -12.6 -4.45 -15.9 -2.2 -18.25 0.05 -20.6 3.25 -20.6 6.45 -20.6 8.7 -18.25 10.95 -15.9 10.95 -12.6 10.95 -9.3 8.7 -6.95" fill="#000000" fill-rule="evenodd" stroke="none"/>
      <path d="M8.7 -6.95 Q6.45 -4.6 3.25 -4.6 0.05 -4.6 -2.2 -6.95 -4.45 -9.3 -4.45 -12.6 -4.45 -15.9 -2.2 -18.25 0.05 -20.6 3.25 -20.6 6.45 -20.6 8.7 -18.25 10.95 -15.9 10.95 -12.6 10.95 -9.3 8.7 -6.95 Z" fill="none" stroke="#000000" stroke-linecap="round" stroke-linejoin="round" stroke-width="4.0"/>
      <path d="M-0.45 -8.35 Q-2.3 -6.45 -4.9 -6.45 -7.45 -6.45 -9.3 -8.35 -11.15 -10.2 -11.15 -12.85 -11.15 -15.5 -9.3 -17.4 -7.45 -19.25 -4.9 -19.25 -2.3 -19.25 -0.45 -17.4 1.35 -15.5 1.35 -12.85 1.35 -10.2 -0.45 -8.35" fill="#000000" fill-rule="evenodd" stroke="none"/>
      <path d="M-0.45 -8.35 Q-2.3 -6.45 -4.9 -6.45 -7.45 -6.45 -9.3 -8.35 -11.15 -10.2 -11.15 -12.85 -11.15 -15.5 -9.3 -17.4 -7.45 -19.25 -4.9 -19.25 -2.3 -19.25 -0.45 -17.4 1.35 -15.5 1.35 -12.85 1.35 -10.2 -0.45 -8.35 Z" fill="none" stroke="#000000" stroke-linecap="round" stroke-linejoin="round" stroke-width="4.0"/>
      <path d="M7.8 0.4 L10.1 -4.9" fill="none" stroke="#000000" stroke-linecap="round" stroke-linejoin="round" stroke-width="5.0"/>
      <path d="M-9.0 -12.7 L-6.85 -3.5" fill="none" stroke="#000000" stroke-linecap="round" stroke-linejoin="round" stroke-width="5.0"/>
      <path d="M-6.85 -3.5 L-8.6 4.75" fill="none" stroke="#000000" stroke-linecap="round" stroke-linejoin="round" stroke-width="5.0"/>
      <path d="M-8.6 4.75 L-9.85 4.75" fill="none" stroke="#000000" stroke-linecap="round" stroke-linejoin="round" stroke-width="5.0"/>
      <path d="M-0.5 -11.05 L1.25 -2.25" fill="none" stroke="#000000" stroke-linecap="round" stroke-linejoin="round" stroke-width="5.0"/>
      <path d="M1.25 -2.25 L-1.25 5.85" fill="none" stroke="#000000" stroke-linecap="round" stroke-linejoin="round" stroke-width="5.0"/>
      <path d="M-1.15 5.6 L-3.45 6.0" fill="none" stroke="#000000" stroke-linecap="round" stroke-linejoin="round" stroke-width="5.0"/>
    </g>
    <g id="shape1" transform="matrix(1.0, 0.0, 0.0, 1.0, 11.15, 40.2)">
      <path d="M7.25 -27.25 Q6.95 -24.0 4.1 -22.8 1.4 -20.15 -3.0 -20.5 -5.55 -21.35 -7.95 -22.65 -10.9 -24.3 -11.15 -27.85 -11.35 -31.25 -9.15 -33.9 -6.95 -36.6 -3.55 -37.05 -0.15 -37.45 2.65 -35.55 5.45 -33.6 6.7 -30.45 7.4 -28.95 7.25 -27.25" fill="#000000" fill-rule="evenodd" stroke="none"/>
      <path d="M2.35 -40.15 Q4.05 -40.6 5.85 -33.7 6.4 -31.55 6.35 -30.85 L5.1 -30.5 Q2.45 -31.6 0.95 -32.6 -1.1 -33.95 -1.9 -35.55 L-1.8 -35.6 -1.7 -35.8 -0.95 -35.6 -0.6 -35.45 0.45 -37.8 Q1.55 -39.95 2.35 -40.15 M-10.7 -35.5 L-10.25 -39.95 Q-8.95 -39.25 -7.85 -38.35 -6.05 -36.95 -5.7 -35.8 -5.35 -34.35 -6.85 -32.8 -8.1 -31.4 -9.8 -30.8 -10.75 -32.55 -10.7 -35.5" fill="#000000" fill-rule="evenodd" stroke="none"/>
    </g>
  </defs>
</svg>
