<?xml version="1.0" encoding="UTF-8" standalone="no"?>
<svg xmlns:xlink="http://www.w3.org/1999/xlink" height="70.15px" width="49.75px" xmlns="http://www.w3.org/2000/svg">
  <g transform="matrix(1.0, 0.0, 0.0, 1.0, 32.75, 36.25)">
    <use height="61.75" transform="matrix(1.0, 0.0, 0.0, 1.0, -19.15, -36.25)" width="34.65" xlink:href="#shape0"/>
    <use height="19.75" transform="matrix(1.0, 0.0, 0.0, 1.0, -23.95, -10.45)" width="18.45" xlink:href="#shape1"/>
  </g>
  <defs>
    <g id="shape0" transform="matrix(1.0, 0.0, 0.0, 1.0, 19.15, 36.25)">
      <path d="M13.0 -33.75 Q10.3 -33.75 9.7 -30.65 9.5 -29.75 9.5 -24.75 9.5 -21.55 7.25 -20.35 4.25 -18.75 3.5 -17.25" fill="none" stroke="#000000" stroke-linecap="round" stroke-linejoin="round" stroke-width="5.0"/>
      <path d="M4.95 -4.95 Q2.7 -2.6 -0.5 -2.6 -3.7 -2.6 -5.95 -4.95 -8.2 -7.3 -8.2 -10.6 -8.2 -13.9 -5.95 -16.25 -3.7 -18.6 -0.5 -18.6 2.7 -18.6 4.95 -16.25 7.2 -13.9 7.2 -10.6 7.2 -7.3 4.95 -4.95" fill="#000000" fill-rule="evenodd" stroke="none"/>
      <path d="M4.95 -4.95 Q2.7 -2.6 -0.5 -2.6 -3.7 -2.6 -5.95 -4.95 -8.2 -7.3 -8.2 -10.6 -8.2 -13.9 -5.95 -16.25 -3.7 -18.6 -0.5 -18.6 2.7 -18.6 4.95 -16.25 7.2 -13.9 7.2 -10.6 7.2 -7.3 4.95 -4.95 Z" fill="none" stroke="#000000" stroke-linecap="round" stroke-linejoin="round" stroke-width="4.0"/>
      <path d="M-6.45 0.15 Q-8.3 2.05 -10.9 2.05 -13.45 2.05 -15.3 0.15 -17.15 -1.7 -17.15 -4.35 -17.15 -7.0 -15.3 -8.9 -13.45 -10.75 -10.9 -10.75 -8.3 -10.75 -6.45 -8.9 -4.65 -7.0 -4.65 -4.35 -4.65 -1.7 -6.45 0.15" fill="#000000" fill-rule="evenodd" stroke="none"/>
      <path d="M-6.45 0.15 Q-8.3 2.05 -10.9 2.05 -13.45 2.05 -15.3 0.15 -17.15 -1.7 -17.15 -4.35 -17.15 -7.0 -15.3 -8.9 -13.45 -10.75 -10.9 -10.75 -8.3 -10.75 -6.45 -8.9 -4.65 -7.0 -4.65 -4.35 -4.65 -1.7 -6.45 0.15 Z" fill="none" stroke="#000000" stroke-linecap="round" stroke-linejoin="round" stroke-width="4.0"/>
      <path d="M8.2 0.6 L7.55 -5.1" fill="none" stroke="#000000" stroke-linecap="round" stroke-linejoin="round" stroke-width="5.0"/>
      <path d="M-15.75 8.25 L-16.0 16.1 -16.25 23.0" fill="none" stroke="#000000" stroke-linecap="round" stroke-linejoin="round" stroke-width="5.0"/>
      <path d="M-3.75 1.0 Q-3.75 4.9 -6.35 6.4 -9.9 8.45 -10.25 9.0 -12.0 11.95 -12.55 13.6 -13.6 16.65 -13.0 19.75" fill="none" stroke="#000000" stroke-linecap="round" stroke-linejoin="round" stroke-width="5.0"/>
    </g>
    <g id="shape1" transform="matrix(1.0, 0.0, 0.0, 1.0, 11.15, 40.2)">
      <path d="M7.25 -27.25 Q6.95 -24.0 4.1 -22.8 1.4 -20.15 -3.0 -20.5 -5.55 -21.35 -7.95 -22.65 -10.9 -24.3 -11.15 -27.85 -11.35 -31.25 -9.15 -33.9 -6.95 -36.6 -3.55 -37.05 -0.15 -37.45 2.65 -35.55 5.45 -33.6 6.7 -30.45 7.4 -28.95 7.25 -27.25" fill="#000000" fill-rule="evenodd" stroke="none"/>
      <path d="M2.35 -40.15 Q4.05 -40.6 5.85 -33.7 6.4 -31.55 6.35 -30.85 L5.1 -30.5 Q2.45 -31.6 0.95 -32.6 -1.1 -33.95 -1.9 -35.55 L-1.8 -35.6 -1.7 -35.8 -0.95 -35.6 -0.6 -35.45 0.45 -37.8 Q1.55 -39.95 2.35 -40.15 M-10.7 -35.5 L-10.25 -39.95 Q-8.95 -39.25 -7.85 -38.35 -6.05 -36.95 -5.7 -35.8 -5.35 -34.35 -6.85 -32.8 -8.1 -31.4 -9.8 -30.8 -10.75 -32.55 -10.7 -35.5" fill="#000000" fill-rule="evenodd" stroke="none"/>
    </g>
  </defs>
</svg>
