<?xml version="1.0" encoding="UTF-8" standalone="no"?>
<svg xmlns:xlink="http://www.w3.org/1999/xlink" height="70.15px" width="49.75px" xmlns="http://www.w3.org/2000/svg">
  <g transform="matrix(1.0, 0.0, 0.0, 1.0, 32.75, 36.25)">
    <use height="54.15" transform="matrix(1.0, 0.0, 0.0, 1.0, -28.6, -20.25)" width="33.1" xlink:href="#shape0"/>
    <use height="19.75" transform="matrix(1.0, 0.0, 0.0, 1.0, -32.75, 6.05)" width="18.45" xlink:href="#shape1"/>
  </g>
  <defs>
    <g id="shape0" transform="matrix(1.0, 0.0, 0.0, 1.0, 28.6, 20.25)">
      <path d="M-9.0 -2.0 Q-7.2 -3.0 -5.75 -5.25 L-3.25 -10.0 -0.15 -13.55 Q1.85 -15.6 2.0 -17.75" fill="none" stroke="#000000" stroke-linecap="round" stroke-linejoin="round" stroke-width="5.0"/>
      <path d="M-7.55 11.45 Q-9.8 13.8 -13.0 13.8 -16.2 13.8 -18.45 11.45 -20.7 9.1 -20.7 5.8 -20.7 2.5 -18.45 0.15 -16.2 -2.2 -13.0 -2.2 -9.8 -2.2 -7.55 0.15 -5.3 2.5 -5.3 5.8 -5.3 9.1 -7.55 11.45" fill="#000000" fill-rule="evenodd" stroke="none"/>
      <path d="M-7.55 11.45 Q-9.8 13.8 -13.0 13.8 -16.2 13.8 -18.45 11.45 -20.7 9.1 -20.7 5.8 -20.7 2.5 -18.45 0.15 -16.2 -2.2 -13.0 -2.2 -9.8 -2.2 -7.55 0.15 -5.3 2.5 -5.3 5.8 -5.3 9.1 -7.55 11.45 Z" fill="none" stroke="#000000" stroke-linecap="round" stroke-linejoin="round" stroke-width="4.0"/>
      <path d="M-15.6 4.75 Q-13.8 6.65 -13.8 9.3 -13.8 11.95 -15.6 13.8 -17.45 15.7 -20.05 15.7 -22.6 15.7 -24.45 13.8 -26.3 11.95 -26.3 9.3 -26.3 6.65 -24.45 4.75 -22.6 2.9 -20.05 2.9 -17.45 2.9 -15.6 4.75" fill="#000000" fill-rule="evenodd" stroke="none"/>
      <path d="M-15.6 4.75 Q-13.8 6.65 -13.8 9.3 -13.8 11.95 -15.6 13.8 -17.45 15.7 -20.05 15.7 -22.6 15.7 -24.45 13.8 -26.3 11.95 -26.3 9.3 -26.3 6.65 -24.45 4.75 -22.6 2.9 -20.05 2.9 -17.45 2.9 -15.6 4.75 Z" fill="none" stroke="#000000" stroke-linecap="round" stroke-linejoin="round" stroke-width="4.0"/>
      <path d="M-5.0 6.5 L-5.0 6.75 -7.75 9.7 Q-9.6 12.0 -10.0 13.25 L-10.0 16.0 -9.0 16.0 Q-8.75 15.25 -7.25 13.75 L-7.25 14.1 -9.05 18.05 Q-10.15 20.5 -10.75 23.5" fill="none" stroke="#000000" stroke-linecap="round" stroke-linejoin="round" stroke-width="5.0"/>
      <path d="M-15.25 11.25 L-15.25 11.5 -15.0 18.75 Q-15.0 21.95 -16.6 26.15 -18.35 30.8 -20.25 30.75" fill="none" stroke="#000000" stroke-linecap="round" stroke-linejoin="round" stroke-width="5.0"/>
      <path d="M-26.1 31.4 Q-24.95 30.5 -24.75 27.3 L-24.75 22.0 -23.2 16.85 Q-22.25 13.35 -22.5 11.75" fill="none" stroke="#000000" stroke-linecap="round" stroke-linejoin="round" stroke-width="5.0"/>
    </g>
    <g id="shape1" transform="matrix(1.0, 0.0, 0.0, 1.0, 11.15, 40.2)">
      <path d="M7.25 -27.25 Q6.95 -24.0 4.1 -22.8 1.4 -20.15 -3.0 -20.5 -5.55 -21.35 -7.95 -22.65 -10.9 -24.3 -11.15 -27.85 -11.35 -31.25 -9.15 -33.9 -6.95 -36.6 -3.55 -37.05 -0.15 -37.45 2.65 -35.55 5.45 -33.6 6.7 -30.45 7.4 -28.95 7.25 -27.25" fill="#000000" fill-rule="evenodd" stroke="none"/>
      <path d="M2.35 -40.15 Q4.05 -40.6 5.85 -33.7 6.4 -31.55 6.35 -30.85 L5.1 -30.5 Q2.45 -31.6 0.95 -32.6 -1.1 -33.95 -1.9 -35.55 L-1.8 -35.6 -1.7 -35.8 -0.95 -35.6 -0.6 -35.45 0.45 -37.8 Q1.55 -39.95 2.35 -40.15 M-10.7 -35.5 L-10.25 -39.95 Q-8.95 -39.25 -7.85 -38.35 -6.05 -36.95 -5.7 -35.8 -5.35 -34.35 -6.85 -32.8 -8.1 -31.4 -9.8 -30.8 -10.75 -32.55 -10.7 -35.5" fill="#000000" fill-rule="evenodd" stroke="none"/>
    </g>
  </defs>
</svg>
