<?xml version="1.0" encoding="UTF-8" standalone="no"?>
<svg xmlns:xlink="http://www.w3.org/1999/xlink" height="70.15px" width="49.75px" xmlns="http://www.w3.org/2000/svg">
  <g transform="matrix(1.0, 0.0, 0.0, 1.0, 32.75, 36.25)">
    <use height="59.75" transform="matrix(1.0, 0.0, 0.0, 1.0, -27.0, -28.25)" width="36.75" xlink:href="#shape0"/>
    <use height="19.75" transform="matrix(1.0, 0.0, 0.0, 1.0, -29.5, 4.05)" width="18.45" xlink:href="#shape1"/>
  </g>
  <defs>
    <g id="shape0" transform="matrix(1.0, 0.0, 0.0, 1.0, 27.0, 28.25)">
      <path d="M-5.5 -13.0 Q-5.85 -15.55 -2.55 -16.1 1.1 -16.7 1.25 -19.25 1.35 -21.4 2.6 -23.25 4.3 -25.8 7.25 -25.75" fill="none" stroke="#000000" stroke-linecap="round" stroke-linejoin="round" stroke-width="5.0"/>
      <path d="M-2.55 0.65 Q-4.8 3.0 -8.0 3.0 -11.2 3.0 -13.45 0.65 -15.7 -1.7 -15.7 -5.0 -15.7 -8.3 -13.45 -10.65 -11.2 -13.0 -8.0 -13.0 -4.8 -13.0 -2.55 -10.65 -0.3 -8.3 -0.3 -5.0 -0.3 -1.7 -2.55 0.65" fill="#000000" fill-rule="evenodd" stroke="none"/>
      <path d="M-2.55 0.65 Q-4.8 3.0 -8.0 3.0 -11.2 3.0 -13.45 0.65 -15.7 -1.7 -15.7 -5.0 -15.7 -8.3 -13.45 -10.65 -11.2 -13.0 -8.0 -13.0 -4.8 -13.0 -2.55 -10.65 -0.3 -8.3 -0.3 -5.0 -0.3 -1.7 -2.55 0.65 Z" fill="none" stroke="#000000" stroke-linecap="round" stroke-linejoin="round" stroke-width="4.0"/>
      <path d="M-10.6 8.3 Q-12.45 10.2 -15.05 10.2 -17.6 10.2 -19.45 8.3 -21.3 6.45 -21.3 3.8 -21.3 1.15 -19.45 -0.75 -17.6 -2.6 -15.05 -2.6 -12.45 -2.6 -10.6 -0.75 -8.8 1.15 -8.8 3.8 -8.8 6.45 -10.6 8.3" fill="#000000" fill-rule="evenodd" stroke="none"/>
      <path d="M-10.6 8.3 Q-12.45 10.2 -15.05 10.2 -17.6 10.2 -19.45 8.3 -21.3 6.45 -21.3 3.8 -21.3 1.15 -19.45 -0.75 -17.6 -2.6 -15.05 -2.6 -12.45 -2.6 -10.6 -0.75 -8.8 1.15 -8.8 3.8 -8.8 6.45 -10.6 8.3 Z" fill="none" stroke="#000000" stroke-linecap="round" stroke-linejoin="round" stroke-width="4.0"/>
      <path d="M-1.25 -3.0 Q-0.5 -3.15 1.6 -4.55 L4.25 -6.25 4.25 1.25 Q4.0 1.25 4.0 1.75 L3.75 1.75" fill="none" stroke="#000000" stroke-linecap="round" stroke-linejoin="round" stroke-width="5.0"/>
      <path d="M-11.5 11.25 Q-10.0 10.4 -9.5 10.5 L-9.5 13.75 -12.0 21.75 Q-12.3 22.65 -13.2 23.3 L-14.75 24.5 -16.0 26.3 Q-16.65 27.0 -17.7 26.75" fill="none" stroke="#000000" stroke-linecap="round" stroke-linejoin="round" stroke-width="5.0"/>
      <path d="M-24.5 29.0 L-22.75 29.0 Q-19.65 23.1 -20.25 13.25" fill="none" stroke="#000000" stroke-linecap="round" stroke-linejoin="round" stroke-width="5.0"/>
    </g>
    <g id="shape1" transform="matrix(1.0, 0.0, 0.0, 1.0, 11.15, 40.2)">
      <path d="M7.25 -27.25 Q6.95 -24.0 4.1 -22.8 1.4 -20.15 -3.0 -20.5 -5.55 -21.35 -7.95 -22.65 -10.9 -24.3 -11.15 -27.85 -11.35 -31.25 -9.15 -33.9 -6.95 -36.6 -3.55 -37.05 -0.15 -37.45 2.65 -35.55 5.45 -33.6 6.7 -30.45 7.4 -28.95 7.25 -27.25" fill="#000000" fill-rule="evenodd" stroke="none"/>
      <path d="M2.35 -40.15 Q4.05 -40.6 5.85 -33.7 6.4 -31.55 6.35 -30.85 L5.1 -30.5 Q2.45 -31.6 0.95 -32.6 -1.1 -33.95 -1.9 -35.55 L-1.8 -35.6 -1.7 -35.8 -0.95 -35.6 -0.6 -35.45 0.45 -37.8 Q1.55 -39.95 2.35 -40.15 M-10.7 -35.5 L-10.25 -39.95 Q-8.95 -39.25 -7.85 -38.35 -6.05 -36.95 -5.7 -35.8 -5.35 -34.35 -6.85 -32.8 -8.1 -31.4 -9.8 -30.8 -10.75 -32.55 -10.7 -35.5" fill="#000000" fill-rule="evenodd" stroke="none"/>
    </g>
  </defs>
</svg>
